<?xml version="1.0" encoding="utf-8"?>
<!-- Generator: Adobe Illustrator 24.0.0, SVG Export Plug-In . SVG Version: 6.00 Build 0)  -->
<svg version="1.1" id="Layer_1" xmlns="http://www.w3.org/2000/svg" xmlns:xlink="http://www.w3.org/1999/xlink" x="0px" y="0px"
	 viewBox="0 0 156.5 33.9" style="enable-background:new 0 0 156.5 33.9;" xml:space="preserve">
<style type="text/css">
	.st0{fill:#696969;}
	.st1{fill:#060606;}
	.st2{fill:none;stroke:#696969;stroke-width:1.8278;stroke-miterlimit:10;}
	.st3{fill:#FFFFFF;}
</style>
<g>
	<path class="st0" d="M43.4,28.3c-1,0-2.3,0-3.9-0.1c-2.1,0-3.4-0.1-3.9-0.1l-5.1-0.1c-0.5,0-1.3,0-2.2-0.1
		c-0.3-0.1-0.5-0.2-0.5-0.5c0-1.3,0-3.1,0.1-5.6c0-2.5,0.1-4.4,0.1-5.6c0-1.3,0-3.3-0.1-6c-0.1-2.7-0.1-4.7-0.1-6
		c0-0.3,0.2-0.4,0.5-0.4s0.9,0,1.5,0.1C30.4,4,30.9,4,31.3,4c0.4,0,0.9,0,1.7-0.1c0.7,0,1.3-0.1,1.7-0.1c0.2,0,0.3,0.1,0.2,0.3
		l0,0.2c-0.1,2.2-0.3,5.4-0.5,9.7l0,4.5c0,1.5,0,2.5,0,3.2c0,0.1,0,0.3,0,0.4c0,0.1,0.1,0.2,0.3,0.3c0,0,0.2,0,0.4,0
		c1,0,2.6-0.1,4.6-0.2c2.1-0.1,3.6-0.2,4.6-0.2c0.3,0,0.5,0.1,0.5,0.4c0,2-0.1,3.7-0.4,5.1c-0.1,0.3-0.2,0.5-0.4,0.5
		C44,28.3,43.8,28.3,43.4,28.3z"/>
	<path class="st0" d="M53.1,20.1c0,0.8,0,2.1,0.1,3.7c0,1.7,0.1,2.9,0.1,3.7c0,0.2-0.1,0.4-0.4,0.4c-0.4,0.1-1.3,0.1-2.6,0.1
		c-1.4,0-2.3,0-2.7-0.1c-0.3,0-0.4-0.1-0.5-0.2c0,0,0-0.2,0-0.5c0-0.8,0-2,0.1-3.6c0-1.6,0.1-2.8,0.1-3.6c0-3.3-0.1-5.9-0.4-7.8
		c0-0.2,0-0.3,0-0.4c0-0.2,0.2-0.3,0.5-0.3c0.3,0,0.8,0,1.5,0.1c0.7,0.1,1.2,0.1,1.5,0.1s0.8,0,1.5-0.1c0.7-0.1,1.2-0.1,1.5-0.1
		c0.3,0,0.4,0.1,0.4,0.3c0,0,0,0.2,0,0.3C53.2,14.6,53.1,17.2,53.1,20.1z M53.6,7.3c0,2-1.1,3-3.4,3c-1,0-1.8-0.3-2.4-0.8
		c-0.7-0.6-1-1.3-1-2.2c0-0.9,0.4-1.6,1.1-2.2c0.7-0.5,1.4-0.8,2.4-0.8c0.9,0,1.7,0.3,2.3,0.8C53.2,5.7,53.6,6.4,53.6,7.3z"/>
	<path class="st0" d="M67,16.9c0,0.3-0.1,0.4-0.4,0.4c-1.2,0-2.2,0-2.9-0.1c0,0.9,0.1,2.1,0.1,3.6c0,0.7,0.1,1.8,0.2,3.4
		c0.1,1.5,0.1,2.6,0.1,3.4c0,0.2-0.2,0.4-0.5,0.4c-0.4,0-1.4,0.1-2.9,0.1c-1.3,0-2.1,0-2.5-0.1c-0.4-0.1-0.6-0.3-0.6-0.7v-9.5
		c0-0.3-0.2-0.5-0.7-0.5c-0.1,0-0.2,0-0.4,0c-0.2,0-0.3,0-0.4,0c-0.3,0-0.5-0.1-0.5-0.3c-0.1-1-0.2-2.5-0.2-4.4
		c0-0.4,0.2-0.7,0.7-0.8c0.4,0,0.8-0.1,1.2-0.1c-0.1-0.9-0.1-1.6-0.1-2.2c0-2,0.4-3.4,1.2-4.3c1.5-1.8,4-2.7,7.4-2.7
		c0.2,0,0.4,0.1,0.4,0.2c0.1,0.5,0.2,1.3,0.4,2.3c0,0.1,0.1,0.4,0.2,1c0.1,0.4,0.2,0.8,0.2,1c0,0.3-0.4,0.5-1.2,0.5
		c-0.9,0.1-1.5,0.3-1.7,0.5c-0.4,0.4-0.6,1.2-0.6,2.4c0,0.4,0,0.7,0.1,1.1c0.3,0,0.8,0,1.5,0s1.2,0,1.5,0S67,11.8,67,12
		c0,0.5,0,1.4,0,2.4C67,15.6,67,16.4,67,16.9z"/>
	<path class="st0" d="M84.6,18.7c0,1.2-0.4,1.8-1.1,2c-0.1,0-1.3,0.1-3.6,0.4c-1.4,0.1-3.4,0.3-6.1,0.5c0.2,0.7,0.6,1.3,1.5,1.7
		c0.7,0.3,1.4,0.5,2.3,0.5c1,0,2-0.3,3.1-0.8c0.4-0.3,0.9-0.6,1.3-0.8c0.2,0.1,0.6,0.7,1.2,1.8c0.6,1.1,0.9,1.7,0.9,2
		c0,0.1-0.1,0.2-0.3,0.4c-1.4,1.5-3.6,2.3-6.5,2.3c-2.7,0-4.9-0.8-6.6-2.4c-1.7-1.6-2.6-3.8-2.6-6.5c0-2.6,0.8-4.8,2.3-6.5
		c1.6-1.7,3.7-2.6,6.3-2.6c2.2,0,4.1,0.8,5.6,2.4C83.9,14.6,84.6,16.5,84.6,18.7z M78.6,17.6c0-0.7-0.3-1.3-0.8-1.9
		c-0.5-0.5-1.1-0.8-1.8-0.8c-0.7,0-1.3,0.3-1.8,0.9c-0.4,0.6-0.7,1.2-0.7,2c0,0.3,0.2,0.5,0.5,0.5c0.8,0,2.2-0.1,4-0.4
		C78.4,17.8,78.6,17.8,78.6,17.6z"/>
	<path class="st0" d="M98,17.3c0,0.4-0.2,0.7-0.7,0.7c-0.2,0-0.5,0-1,0c-0.4,0-0.7,0-0.9,0c-1,0-1.6,0.1-1.9,0.4
		c-0.3,0.3-0.5,0.9-0.5,1.8c0,0.5,0,1.2,0,2.2c0,1,0,1.8,0,2.2c0,0.3,0,0.8,0.1,1.5c0,0.7,0.1,1.2,0.1,1.5c0,0.3-0.2,0.4-0.6,0.5
		c-0.6,0-1.4,0.1-2.5,0.1c-1.1,0-2,0-2.6-0.1c-0.4,0-0.6-0.2-0.6-0.6c0-0.9,0-2.3,0-4.1c0-1.8,0-3.2,0-4.1c0-2.7-0.2-4.9-0.7-6.7
		c0-0.1,0-0.2,0-0.3c0-0.2,0.1-0.3,0.3-0.3c0.6-0.1,1.6-0.2,2.8-0.4c1.8-0.4,2.7-0.5,2.8-0.5c0.2,0,0.3,0.4,0.4,1.1s0.2,1.1,0.3,1.1
		c-0.2,0,0.3-0.3,1.4-0.9c1.1-0.6,2.2-0.9,3.2-0.9c0.6,0,1,0.1,1,0.4c0,0.3,0,0.8-0.1,1.4c-0.1,0.7-0.1,1.1-0.1,1.4
		c0,0.3,0,0.8,0,1.3C97.9,16.6,98,17.1,98,17.3z"/>
	<path class="st0" d="M117.3,19.4c0,0.9,0.1,2.2,0.2,3.9c0.1,1.7,0.2,3.1,0.2,3.9c0,0.5-0.2,0.7-0.6,0.7c-1.4,0.1-3.1,0.2-4.9,0.2
		c-0.2,0-0.4-0.3-0.4-1c-0.1-0.7-0.2-1-0.3-1c-0.1,0-0.2,0.1-0.4,0.3c-1.3,1.3-2.7,1.9-4.1,1.9c-2.2,0-4.1-0.9-5.6-2.7
		c-1.4-1.7-2.1-3.6-2.1-5.9c0-2.7,0.7-4.8,2.2-6.4c1.5-1.7,3.5-2.5,6.1-2.5c1.8,0,3.2,0.6,4.3,1.9c0,0.1,0.1,0.1,0.1,0.1
		c0.1,0,0.2-0.3,0.4-0.8s0.3-0.8,0.5-0.8c0.4,0,1.2,0.1,2.4,0.4c1.1,0.2,2,0.4,2.4,0.6c0.2,0.1,0.3,0.2,0.3,0.3c0,0,0,0.2-0.1,0.4
		C117.5,14.9,117.3,17.1,117.3,19.4z M111.7,19.5c0-1-0.3-1.8-0.9-2.4c-0.6-0.6-1.4-1-2.4-1c-1,0-1.8,0.3-2.4,0.9
		c-0.6,0.6-0.9,1.4-0.9,2.4c0,0.9,0.3,1.7,1,2.4c0.6,0.7,1.4,1,2.3,1c1,0,1.8-0.3,2.4-1C111.4,21.3,111.7,20.5,111.7,19.5z"/>
	<path class="st0" d="M132.1,17.3c0,0.4-0.2,0.7-0.7,0.7c-0.2,0-0.5,0-1,0c-0.4,0-0.7,0-0.9,0c-1,0-1.6,0.1-1.9,0.4
		c-0.3,0.3-0.5,0.9-0.5,1.8c0,0.5,0,1.2,0,2.2c0,1,0,1.8,0,2.2c0,0.3,0,0.8,0.1,1.5c0,0.7,0.1,1.2,0.1,1.5c0,0.3-0.2,0.4-0.6,0.5
		c-0.6,0-1.4,0.1-2.5,0.1c-1.1,0-2,0-2.6-0.1c-0.4,0-0.6-0.2-0.6-0.6c0-0.9,0-2.3,0-4.1c0-1.8,0-3.2,0-4.1c0-2.7-0.2-4.9-0.7-6.7
		c0-0.1,0-0.2,0-0.3c0-0.2,0.1-0.3,0.3-0.3c0.6-0.1,1.6-0.2,2.8-0.4C125,11.2,126,11,126,11c0.2,0,0.3,0.4,0.4,1.1s0.2,1.1,0.3,1.1
		c-0.2,0,0.3-0.3,1.4-0.9c1.1-0.6,2.2-0.9,3.2-0.9c0.6,0,1,0.1,1,0.4c0,0.3,0,0.8-0.1,1.4c-0.1,0.7-0.1,1.1-0.1,1.4
		c0,0.3,0,0.8,0,1.3C132.1,16.6,132.1,17.1,132.1,17.3z"/>
	<path class="st0" d="M151,15.7c0,2.2-0.1,3.6-0.2,4.1c-0.2,0.6-1.4,2.7-3.8,6.2c-0.4,0.6-1.3,1.9-2.8,3.9c-1.7,2.2-2.6,3.4-2.9,3.6
		c-0.3,0.2-2,0.3-5.3,0.3c-0.5,0-0.8-0.1-1-0.2c-0.1-0.5-0.3-1-0.6-1.7c-0.2-0.4-0.4-0.8-0.6-1.2c-0.3-0.6-0.4-1-0.4-1.2
		c0-0.2,0.1-0.3,0.3-0.3c3.2,0,4.8-0.7,4.8-2.2c0-0.1-0.8-1.3-2.3-3.4c-1.6-2.2-2.5-3.6-2.7-4.2c-0.1-0.3-0.1-1.5-0.1-3.6
		c0-0.4,0-1,0-1.9c0-0.8,0-1.5,0-1.9c0-0.3,0.2-0.4,0.6-0.4c0.6,0,1.5,0,2.7,0.1c1.2,0,2.1,0.1,2.7,0.1c0.2,0,0.4,0.2,0.4,0.5
		c0,0.3,0,0.8-0.1,1.5c0,0.6-0.1,1.1-0.1,1.5c0,1.4,0,2.4,0.1,2.9c0,0.4,0.4,1.1,1,2.2c0.7,1.1,1.2,1.7,1.5,1.7
		c0.3,0,0.7-0.6,1.3-1.7c0.6-1.1,0.9-1.8,0.9-2.2c0.1-1,0.2-2.1,0.2-3.3c0-0.3,0-0.8-0.1-1.4c-0.1-0.6-0.1-1.1-0.1-1.4
		c0-0.2,0.1-0.3,0.4-0.3c0.6,0,1.5,0,2.6-0.1s2-0.1,2.6-0.1c0.3,0,0.5,0.1,0.6,0.4C150.9,12.6,151,13.8,151,15.7z"/>
</g>
<g>
	<polygon class="st1" points="5.6,30.5 1.1,26.6 1.1,5.1 5.6,8.9 	"/>
	<path class="st0" d="M5.6,30.4l15.9-3.5c0.9-0.2,1.5-0.9,1.5-1.8V7.3c0-1.2-1.1-2-2.2-1.8L5.6,8.9V30.4z"/>
	<polyline class="st0" points="16.2,27.7 14.6,31.9 19.7,27 	"/>
	<line class="st2" x1="1.1" y1="5.1" x2="17.9" y2="1.4"/>
	<g>
		<circle class="st3" cx="11.8" cy="18.2" r="0.8"/>
		<circle class="st3" cx="14.3" cy="17.7" r="0.8"/>
		<circle class="st3" cx="16.9" cy="17.3" r="0.8"/>
	</g>
</g>
</svg>
