<?xml version="1.0" encoding="utf-8"?>
<!-- Generator: Adobe Illustrator 24.0.0, SVG Export Plug-In . SVG Version: 6.00 Build 0)  -->
<svg version="1.1" id="Layer_1" xmlns="http://www.w3.org/2000/svg" xmlns:xlink="http://www.w3.org/1999/xlink" x="0px" y="0px"
	 viewBox="0 0 100 80" style="enable-background:new 0 0 100 80;" xml:space="preserve">
<style type="text/css">
	.st0{fill:#A67521;}
	.st1{fill:#FFFFFF;}
	.st2{fill:#785312;}
</style>
<g>
	<g>
		<polygon class="st0" points="30.5,8.6 29.7,7.9 62,1 62.7,1.6 		"/>
	</g>
	<g>
		<path class="st0" d="M13.5,74.7c-0.8,0-1.8,0-3.1-0.1c-1.6,0-2.7-0.1-3.1-0.1l-4.1-0.1c-0.4,0-1,0-1.8-0.1c-0.3,0-0.4-0.2-0.4-0.4
			c0-1,0-2.4,0-4.4c0-2,0-3.4,0-4.4c0-1,0-2.6-0.1-4.7C1,58.5,1,57,1,55.9c0-0.2,0.1-0.3,0.4-0.3s0.7,0,1.2,0c0.5,0,0.9,0,1.2,0
			c0.3,0,0.8,0,1.3,0c0.6,0,1,0,1.3,0c0.1,0,0.2,0.1,0.2,0.3l0,0.2c-0.1,1.7-0.2,4.2-0.4,7.6l0,3.6c0,1.1,0,2,0,2.5
			c0,0.1,0,0.2,0,0.3c0,0.1,0.1,0.2,0.2,0.2c0,0,0.1,0,0.4,0c0.8,0,2.1,0,3.7-0.1s2.9-0.1,3.7-0.1c0.2,0,0.4,0.1,0.4,0.3
			c0,1.5-0.1,2.9-0.3,4c0,0.2-0.1,0.4-0.3,0.4C14,74.7,13.8,74.7,13.5,74.7z"/>
		<path class="st0" d="M21.2,68.3c0,0.7,0,1.6,0,2.9c0,1.3,0,2.3,0,2.9c0,0.2-0.1,0.3-0.3,0.3c-0.3,0.1-1,0.1-2.1,0.1
			c-1.1,0-1.8,0-2.1-0.1c-0.2,0-0.3-0.1-0.4-0.2c0,0,0-0.2,0-0.4c0-0.6,0-1.6,0-2.8c0-1.2,0-2.2,0-2.8c0-2.5-0.1-4.6-0.3-6.1
			c0-0.1,0-0.2,0-0.3c0-0.2,0.1-0.3,0.4-0.3c0.3,0,0.6,0,1.2,0.1c0.5,0.1,0.9,0.1,1.2,0.1s0.7,0,1.2-0.1c0.5,0,0.9-0.1,1.2-0.1
			c0.2,0,0.3,0.1,0.3,0.3c0,0,0,0.1,0,0.3C21.3,64,21.2,66,21.2,68.3z M21.6,58.3c0,1.6-0.9,2.3-2.7,2.3c-0.8,0-1.4-0.2-1.9-0.6
			c-0.5-0.4-0.8-1-0.8-1.8c0-0.7,0.3-1.3,0.9-1.7c0.5-0.4,1.1-0.6,1.9-0.6c0.7,0,1.3,0.2,1.9,0.6C21.3,57.1,21.6,57.6,21.6,58.3z"/>
		<path class="st0" d="M32.3,65.8c0,0.2-0.1,0.3-0.4,0.3c-1,0-1.8,0-2.3-0.1c0,0.7,0.1,1.6,0.1,2.8c0,0.5,0.1,1.4,0.1,2.7
			c0.1,1.1,0.1,2,0.1,2.7c0,0.2-0.1,0.3-0.4,0.3c-0.3,0-1.1,0.1-2.3,0.1c-1,0-1.7,0-2-0.1c-0.3-0.1-0.5-0.2-0.5-0.6v-7.4
			c0-0.3-0.2-0.4-0.5-0.4c-0.1,0-0.2,0-0.3,0c-0.1,0-0.2,0-0.3,0c-0.3,0-0.4-0.1-0.4-0.2C23.1,65.2,23,64,23,62.5
			c0-0.3,0.2-0.5,0.5-0.6c0.3,0,0.6,0,0.9-0.1c0-0.7-0.1-1.3-0.1-1.7c0-1.5,0.3-2.7,0.9-3.4c1.2-1.4,3.2-2.1,5.9-2.1
			c0.2,0,0.3,0.1,0.3,0.2c0.1,0.4,0.2,1,0.3,1.8c0,0.1,0.1,0.3,0.2,0.8c0.1,0.3,0.1,0.6,0.1,0.8c0,0.2-0.3,0.4-1,0.4
			c-0.8,0.1-1.2,0.2-1.4,0.4c-0.3,0.3-0.5,1-0.5,1.9c0,0.3,0,0.6,0.1,0.8c0.3,0,0.7,0,1.2,0c0.5,0,0.9,0,1.2,0
			c0.3,0,0.4,0.1,0.4,0.3c0,0.4,0,1.1,0,1.9C32.3,64.8,32.3,65.4,32.3,65.8z"/>
		<path class="st0" d="M46.4,67.2c0,0.9-0.3,1.4-0.9,1.5c-0.1,0-1,0.1-2.8,0.3c-1.1,0.1-2.7,0.3-4.8,0.4c0.1,0.6,0.5,1,1.2,1.3
			c0.5,0.3,1.1,0.4,1.8,0.4c0.8,0,1.6-0.2,2.5-0.6c0.3-0.2,0.7-0.4,1-0.6c0.2,0.1,0.5,0.5,1,1.4c0.5,0.8,0.7,1.4,0.7,1.6
			c0,0.1-0.1,0.2-0.2,0.3c-1.1,1.2-2.9,1.8-5.2,1.8c-2.2,0-3.9-0.6-5.3-1.9c-1.4-1.3-2.1-3-2.1-5.1c0-2.1,0.6-3.8,1.8-5.1
			c1.3-1.4,2.9-2,5-2c1.8,0,3.2,0.6,4.5,1.9C45.8,64,46.4,65.5,46.4,67.2z M41.6,66.4c0-0.6-0.2-1-0.6-1.5c-0.4-0.4-0.9-0.6-1.4-0.6
			c-0.6,0-1.1,0.2-1.4,0.7c-0.3,0.4-0.5,1-0.5,1.5c0,0.2,0.1,0.4,0.4,0.4c0.7,0,1.7-0.1,3.2-0.3C41.4,66.5,41.6,66.5,41.6,66.4z"/>
		<path class="st0" d="M57,66.1c0,0.4-0.2,0.5-0.6,0.5c-0.2,0-0.4,0-0.8,0c-0.3,0-0.6,0-0.7,0c-0.8,0-1.3,0.1-1.6,0.4
			c-0.3,0.2-0.4,0.7-0.4,1.4c0,0.4,0,1,0,1.8c0,0.8,0,1.4,0,1.8c0,0.3,0,0.6,0.1,1.2c0,0.5,0.1,0.9,0.1,1.2c0,0.2-0.2,0.3-0.5,0.4
			c-0.4,0-1.1,0.1-2,0.1c-0.9,0-1.6,0-2.1-0.1c-0.3,0-0.5-0.2-0.5-0.4c0-0.7,0-1.8,0-3.2c0-1.4,0-2.5,0-3.2c0-2.1-0.2-3.8-0.6-5.2
			c0-0.1,0-0.1,0-0.2c0-0.1,0.1-0.2,0.2-0.3c0.5-0.1,1.2-0.2,2.2-0.3c1.4-0.3,2.2-0.4,2.2-0.4c0.2,0,0.3,0.3,0.3,0.8
			c0,0.6,0.1,0.8,0.2,0.8c-0.1,0,0.2-0.2,1.1-0.7c0.9-0.5,1.7-0.7,2.5-0.7c0.5,0,0.8,0.1,0.8,0.3c0,0.3,0,0.6-0.1,1.1
			C57,63.4,57,63.8,57,64c0,0.3,0,0.6,0,1C57,65.6,57,65.9,57,66.1z"/>
		<path class="st0" d="M72.4,67.8c0,0.7,0,1.7,0.1,3.1c0.1,1.4,0.1,2.4,0.1,3.1c0,0.4-0.2,0.6-0.5,0.6c-1.1,0.1-2.4,0.1-3.9,0.1
			c-0.2,0-0.3-0.3-0.4-0.8c-0.1-0.5-0.1-0.8-0.2-0.8c-0.1,0-0.2,0.1-0.3,0.2c-1,1-2.1,1.5-3.3,1.5c-1.8,0-3.3-0.7-4.4-2.1
			c-1.1-1.3-1.7-2.8-1.7-4.6c0-2.1,0.6-3.7,1.7-5c1.2-1.3,2.8-2,4.9-2c1.4,0,2.6,0.5,3.4,1.5c0,0,0.1,0.1,0.1,0.1
			c0.1,0,0.2-0.2,0.3-0.7c0.1-0.4,0.2-0.7,0.4-0.7c0.3,0,1,0.1,1.9,0.3c0.9,0.2,1.6,0.3,2,0.5c0.1,0.1,0.2,0.1,0.2,0.2
			c0,0,0,0.1,0,0.3C72.6,64.2,72.4,66,72.4,67.8z M68,67.8c0-0.8-0.2-1.4-0.7-1.9c-0.5-0.5-1.1-0.7-1.9-0.7c-0.8,0-1.4,0.2-1.9,0.7
			c-0.5,0.5-0.7,1.1-0.7,1.9c0,0.7,0.3,1.4,0.8,1.9c0.5,0.5,1.1,0.8,1.9,0.8c0.8,0,1.4-0.2,1.9-0.7C67.7,69.3,68,68.6,68,67.8z"/>
		<path class="st0" d="M84.2,66.1c0,0.4-0.2,0.5-0.6,0.5c-0.2,0-0.4,0-0.8,0c-0.3,0-0.6,0-0.7,0c-0.8,0-1.3,0.1-1.6,0.4
			c-0.3,0.2-0.4,0.7-0.4,1.4c0,0.4,0,1,0,1.8c0,0.8,0,1.4,0,1.8c0,0.3,0,0.6,0.1,1.2c0,0.5,0.1,0.9,0.1,1.2c0,0.2-0.2,0.3-0.5,0.4
			c-0.4,0-1.1,0.1-2,0.1c-0.9,0-1.6,0-2.1-0.1c-0.3,0-0.5-0.2-0.5-0.4c0-0.7,0-1.8,0-3.2c0-1.4,0-2.5,0-3.2c0-2.1-0.2-3.8-0.6-5.2
			c0-0.1,0-0.1,0-0.2c0-0.1,0.1-0.2,0.2-0.3c0.5-0.1,1.2-0.2,2.2-0.3c1.4-0.3,2.2-0.4,2.2-0.4c0.2,0,0.3,0.3,0.3,0.8
			c0,0.6,0.1,0.8,0.2,0.8c-0.1,0,0.2-0.2,1.1-0.7s1.7-0.7,2.5-0.7c0.5,0,0.8,0.1,0.8,0.3c0,0.3,0,0.6-0.1,1.1
			c-0.1,0.5-0.1,0.9-0.1,1.1c0,0.3,0,0.6,0,1C84.2,65.6,84.2,65.9,84.2,66.1z"/>
		<path class="st0" d="M99.3,64.9c0,1.7-0.1,2.8-0.2,3.2c-0.1,0.4-1.1,2.1-3,4.9c-0.3,0.4-1,1.5-2.3,3.1c-1.3,1.8-2.1,2.7-2.3,2.8
			C91.4,78.9,90,79,87.4,79c-0.4,0-0.7,0-0.8-0.1c-0.1-0.4-0.3-0.8-0.5-1.3c-0.1-0.3-0.3-0.6-0.4-1c-0.2-0.5-0.3-0.8-0.3-0.9
			c0-0.2,0.1-0.3,0.2-0.3c2.5,0,3.8-0.6,3.8-1.7c0-0.1-0.6-1-1.9-2.7c-1.3-1.7-2-2.8-2.1-3.3c-0.1-0.3-0.1-1.2-0.1-2.8
			c0-0.3,0-0.8,0-1.5c0-0.7,0-1.1,0-1.5c0-0.2,0.2-0.4,0.5-0.4c0.5,0,1.2,0,2.1,0c0.9,0,1.7,0,2.1,0c0.2,0,0.3,0.1,0.3,0.4
			c0,0.3,0,0.6,0,1.1s0,0.9,0,1.1c0,1.1,0,1.9,0.1,2.3c0,0.3,0.3,0.9,0.8,1.8c0.5,0.9,0.9,1.3,1.2,1.3c0.2,0,0.6-0.4,1.1-1.3
			c0.5-0.8,0.7-1.4,0.8-1.7c0.1-0.8,0.1-1.6,0.1-2.6c0-0.2,0-0.6-0.1-1.1c0-0.5-0.1-0.9-0.1-1.1c0-0.2,0.1-0.3,0.3-0.3
			c0.5,0,1.2,0,2.1-0.1c0.9,0,1.6-0.1,2.1-0.1c0.2,0,0.4,0.1,0.5,0.4C99.3,62.4,99.3,63.4,99.3,64.9z"/>
	</g>
	<path class="st0" d="M38.3,55.7l30.6-6.6c1.6-0.4,2.8-1.8,2.8-3.4V12.2c0-2.2-2-3.8-4.2-3.3l-29.2,6.3V55.7z"/>
	<polyline class="st0" points="58.8,50.6 55.7,58.6 65.3,49.2 	"/>
	<g>
		<ellipse class="st1" cx="50.2" cy="32.6" rx="1.5" ry="1.5"/>
		<ellipse class="st1" cx="55" cy="31.8" rx="1.5" ry="1.5"/>
		<ellipse class="st1" cx="60.1" cy="30.9" rx="1.5" ry="1.5"/>
	</g>
	<polygon class="st2" points="38.3,55.7 29.7,48.4 29.7,7.9 38.3,15.2 	"/>
</g>
</svg>
