<?xml version="1.0" encoding="utf-8"?>
<!-- Generator: Adobe Illustrator 24.0.0, SVG Export Plug-In . SVG Version: 6.00 Build 0)  -->
<svg version="1.1" id="Layer_1" xmlns="http://www.w3.org/2000/svg" xmlns:xlink="http://www.w3.org/1999/xlink" x="0px" y="0px"
	 viewBox="0 0 40 40" style="enable-background:new 0 0 40 40;" xml:space="preserve">
<style type="text/css">
	.st0{fill:#A77623;}
</style>
<path id="패스_78_1_" class="st0" d="M35.02,33.91c-0.66,0.68-1.74,0.69-2.42,0.03c-0.01-0.01-0.02-0.02-0.03-0.03l-4.36-4.36
	c-6.29,5.04-15.47,4.02-20.51-2.27S3.68,11.81,9.97,6.77s15.47-4.02,20.51,2.27c4.21,5.27,4.27,12.73,0.14,18.06l4.36,4.36
	C35.66,32.14,35.68,33.22,35.02,33.91z M19.33,7.41c-5.96,0-10.79,4.83-10.79,10.79s4.83,10.79,10.79,10.79s10.79-4.83,10.79-10.79
	l0,0c0.01-5.95-4.81-10.78-10.76-10.79C19.35,7.41,19.34,7.41,19.33,7.41z"/>
</svg>
