<?xml version="1.0" encoding="utf-8"?>
<!-- Generator: Adobe Illustrator 24.0.0, SVG Export Plug-In . SVG Version: 6.00 Build 0)  -->
<svg version="1.1" id="Layer_1" xmlns="http://www.w3.org/2000/svg" xmlns:xlink="http://www.w3.org/1999/xlink" x="0px" y="0px"
	 viewBox="0 0 100 100" style="enable-background:new 0 0 100 100;" xml:space="preserve">
<style type="text/css">
	.st0{fill:url(#SVGID_1_);}
</style>
<linearGradient id="SVGID_1_" gradientUnits="userSpaceOnUse" x1="23.3413" y1="78.6883" x2="53.7983" y2="48.2313" gradientTransform="matrix(2.0833 0 0 -2.0833 -27.0833 181.25)">
	<stop  offset="0" style="stop-color:#2AA4F4"/>
	<stop  offset="1" style="stop-color:#007AD9"/>
</linearGradient>
<path class="st0" d="M96.1,23c-3.2,1.4-6.7,2.4-10.4,2.8c3.7-2.2,6.6-5.7,7.9-9.9c-3.5,2-7.4,3.5-11.5,4.3c-3.3-3.5-8-5.6-13.2-5.6
	c-10,0-18,8-18,17.9c0,1.4,0.2,2.8,0.5,4.1c-15-0.8-28.3-7.9-37.2-18.7c-1.6,2.6-2.4,5.7-2.4,9c0,6.2,3.2,11.7,8,14.9
	c-3-0.1-5.7-0.9-8.2-2.2c0,0.1,0,0.1,0,0.2c0,8.7,6.2,15.9,14.5,17.5c-1.5,0.4-3.1,0.6-4.7,0.6c-1.2,0-2.3-0.1-3.4-0.3
	c2.3,7.1,9,12.3,16.8,12.4c-6.2,4.8-14,7.7-22.4,7.7c-1.5,0-2.9-0.1-4.3-0.3c8,5.1,17.5,8,27.7,8c33.2,0,51.3-27.2,51.3-50.9
	c0-0.8,0-1.5-0.1-2.3C90.6,29.7,93.6,26.6,96.1,23"/>
</svg>
